{
  "accessors": [
    {
      "bufferView": 2,
      "componentType": 5126,
      "count": 494,
      "max": [
        -7.705480098724365,
        -19.99020004272461,
        4.387660026550293
      ],
      "min": [
        -14.031399726867676,
        -25.373199462890625,
        2.457390069961548
      ],
      "type": "VEC3"
    },
    {
      "bufferView": 2,
      "byteOffset": 5928,
      "componentType": 5126,
      "count": 494,
      "max": [
        0.9924644827842712,
        0.2201990783214569,
        0.999845027923584
      ],
      "min": [
        -0.9924644827842712,
        -0.9874407052993774,
        -0.9596782326698303
      ],
      "type": "VEC3"
    },
    {
      "bufferView": 1,
      "componentType": 5126,
      "count": 494,
      "max": [
        2.4268600940704346,
        1.950659990310669
      ],
      "min": [
        1.6362600326538086,
        1.2803499698638916
      ],
      "type": "VEC2"
    },
    {
      "bufferView": 0,
      "componentType": 5125,
      "count": 1674,
      "type": "SCALAR"
    },
    {
      "bufferView": 2,
      "byteOffset": 11856,
      "componentType": 5126,
      "count": 120,
      "max": [
        -7.804409980773926,
        -9.969169616699219,
        1.485759973526001
      ],
      "min": [
        -13.932499885559082,
        -25.571800231933594,
        0.9426329731941223
      ],
      "type": "VEC3"
    },
    {
      "bufferView": 2,
      "byteOffset": 13296,
      "componentType": 5126,
      "count": 120,
      "max": [
        0.6992068886756897,
        0.8117287158966064,
        0.03162972629070282
      ],
      "min": [
        -0.6992068886756897,
        -0.9791746139526367,
        -0.2208901196718216
      ],
      "type": "VEC3"
    },
    {
      "bufferView": 3,
      "componentType": 5126,
      "count": 120,
      "max": [
        1.0,
        0.1978633850812912,
        0.9684966802597046,
        1.0
      ],
      "min": [
        -0.8122069835662842,
        -0.6992068290710449,
        -0.968787670135498,
        -1.0
      ],
      "type": "VEC4"
    },
    {
      "bufferView": 1,
      "byteOffset": 3952,
      "componentType": 5126,
      "count": 120,
      "max": [
        8.418760299682617,
        0.8591820001602173
      ],
      "min": [
        -7.421110153198242,
        -3.030550003051758
      ],
      "type": "VEC2"
    },
    {
      "bufferView": 0,
      "byteOffset": 6696,
      "componentType": 5125,
      "count": 384,
      "type": "SCALAR"
    },
    {
      "bufferView": 2,
      "byteOffset": 14736,
      "componentType": 5126,
      "count": 381,
      "max": [
        -7.276040077209473,
        -10.36929988861084,
        4.165289878845215
      ],
      "min": [
        -14.460800170898438,
        -25.166799545288086,
        1.1461100578308105
      ],
      "type": "VEC3"
    },
    {
      "bufferView": 2,
      "byteOffset": 19308,
      "componentType": 5126,
      "count": 381,
      "max": [
        0.9992258548736572,
        0.9769839644432068,
        0.9997521042823792
      ],
      "min": [
        -0.9992258548736572,
        -0.9404836893081665,
        -0.953317403793335
      ],
      "type": "VEC3"
    },
    {
      "bufferView": 3,
      "byteOffset": 1920,
      "componentType": 5126,
      "count": 381,
      "max": [
        1.0,
        0.9817551970481873,
        0.9990328550338745,
        1.0
      ],
      "min": [
        -1.0,
        -0.360391229391098,
        -0.5363309979438782,
        -1.0
      ],
      "type": "VEC4"
    },
    {
      "bufferView": 1,
      "byteOffset": 4912,
      "componentType": 5126,
      "count": 381,
      "max": [
        13.296899795532227,
        58.53120040893555
      ],
      "min": [
        -13.156200408935547,
        -45.96879959106445
      ],
      "type": "VEC2"
    },
    {
      "bufferView": 0,
      "byteOffset": 8232,
      "componentType": 5125,
      "count": 1110,
      "type": "SCALAR"
    },
    {
      "bufferView": 2,
      "byteOffset": 23880,
      "componentType": 5126,
      "count": 114,
      "max": [
        -7.625889778137207,
        -10.136300086975098,
        1.7906700372695923
      ],
      "min": [
        -14.111000061035156,
        -11.010199546813965,
        0.7331920266151428
      ],
      "type": "VEC3"
    },
    {
      "bufferView": 2,
      "byteOffset": 25248,
      "componentType": 5126,
      "count": 114,
      "max": [
        0.7415149211883545,
        0.8183906078338623,
        0.10268087685108185
      ],
      "min": [
        -0.7415149211883545,
        0.6686283946037292,
        -0.07873048633337021
      ],
      "type": "VEC3"
    },
    {
      "bufferView": 3,
      "byteOffset": 8016,
      "componentType": 5126,
      "count": 114,
      "max": [
        0.8185365200042725,
        -0.5744062662124634,
        0.01351563073694706,
        1.0
      ],
      "min": [
        -0.818536639213562,
        -0.7417261004447937,
        -0.005899304058402777,
        -1.0
      ],
      "type": "VEC4"
    },
    {
      "bufferView": 1,
      "byteOffset": 7960,
      "componentType": 5126,
      "count": 114,
      "max": [
        4.233610153198242,
        3.4408600330352783
      ],
      "min": [
        -0.9140250086784363,
        -0.6671000123023987
      ],
      "type": "VEC2"
    },
    {
      "bufferView": 0,
      "byteOffset": 12672,
      "componentType": 5125,
      "count": 318,
      "type": "SCALAR"
    },
    {
      "bufferView": 2,
      "byteOffset": 26616,
      "componentType": 5126,
      "count": 168,
      "max": [
        -8.049200057983398,
        -24.255199432373047,
        2.513979911804199
      ],
      "min": [
        -13.687700271606445,
        -25.152999877929688,
        1.731850028038025
      ],
      "type": "VEC3"
    },
    {
      "bufferView": 2,
      "byteOffset": 28632,
      "componentType": 5126,
      "count": 168,
      "max": [
        0.9766203761100769,
        0.695136547088623,
        0.978778064250946
      ],
      "min": [
        -0.9766203761100769,
        -0.9874098300933838,
        -0.974687397480011
      ],
      "type": "VEC3"
    },
    {
      "bufferView": 3,
      "byteOffset": 9840,
      "componentType": 5126,
      "count": 168,
      "max": [
        0.7867113947868347,
        0.9746333360671997,
        0.6948027610778809,
        1.0
      ],
      "min": [
        -0.5935550928115845,
        -0.9870036840438843,
        -0.9822828769683838,
        1.0
      ],
      "type": "VEC4"
    },
    {
      "bufferView": 1,
      "byteOffset": 8872,
      "componentType": 5126,
      "count": 168,
      "max": [
        42.52949905395508,
        99.9469985961914
      ],
      "min": [
        -51.614898681640625,
        -175.5780029296875
      ],
      "type": "VEC2"
    },
    {
      "bufferView": 0,
      "byteOffset": 13944,
      "componentType": 5125,
      "count": 780,
      "type": "SCALAR"
    },
    {
      "bufferView": 2,
      "byteOffset": 30648,
      "componentType": 5126,
      "count": 50,
      "max": [
        -9.180689811706543,
        -16.40760040283203,
        4.537099838256836
      ],
      "min": [
        -12.55620002746582,
        -19.163700103759766,
        4.277140140533447
      ],
      "type": "VEC3"
    },
    {
      "bufferView": 2,
      "byteOffset": 31248,
      "componentType": 5126,
      "count": 50,
      "max": [
        0.13433776795864105,
        0.11030098050832748,
        -0.9817596077919006
      ],
      "min": [
        -0.13433776795864105,
        -0.14922717213630676,
        -0.9920337200164795
      ],
      "type": "VEC3"
    },
    {
      "bufferView": 3,
      "byteOffset": 12528,
      "componentType": 5126,
      "count": 50,
      "max": [
        0.9930172562599182,
        0.02555491402745247,
        0.13453927636146545,
        1.0
      ],
      "min": [
        -0.9930171966552734,
        -0.004505900666117668,
        0.11547761410474777,
        -1.0
      ],
      "type": "VEC4"
    },
    {
      "bufferView": 1,
      "byteOffset": 10216,
      "componentType": 5126,
      "count": 50,
      "max": [
        2.6963000297546387,
        5.819419860839844
      ],
      "min": [
        -3.6445600986480713,
        -4.526979923248291
      ],
      "type": "VEC2"
    },
    {
      "bufferView": 0,
      "byteOffset": 17064,
      "componentType": 5125,
      "count": 138,
      "type": "SCALAR"
    },
    {
      "bufferView": 2,
      "byteOffset": 31848,
      "componentType": 5126,
      "count": 94,
      "max": [
        -9.12405014038086,
        -18.64780044555664,
        3.8186299800872803
      ],
      "min": [
        -12.612799644470215,
        -18.845500946044922,
        3.019850015640259
      ],
      "type": "VEC3"
    },
    {
      "bufferView": 2,
      "byteOffset": 32976,
      "componentType": 5126,
      "count": 94,
      "max": [
        0.6610689163208008,
        1.0,
        0.8184919953346252
      ],
      "min": [
        -0.6610689163208008,
        0.5745180249214172,
        -0.5271667838096619
      ],
      "type": "VEC3"
    },
    {
      "bufferView": 3,
      "byteOffset": 13328,
      "componentType": 5126,
      "count": 94,
      "max": [
        0.9998217225074768,
        0.64169842004776,
        0.2671814560890198,
        1.0
      ],
      "min": [
        -0.9998176097869873,
        -0.6335417628288269,
        -0.29985663294792175,
        -1.0
      ],
      "type": "VEC4"
    },
    {
      "bufferView": 1,
      "byteOffset": 10616,
      "componentType": 5126,
      "count": 94,
      "max": [
        7.8801398277282715,
        4.599880218505859
      ],
      "min": [
        -0.06424160301685333,
        -1.4606300592422485
      ],
      "type": "VEC2"
    },
    {
      "bufferView": 0,
      "byteOffset": 17616,
      "componentType": 5125,
      "count": 408,
      "type": "SCALAR"
    },
    {
      "bufferView": 2,
      "byteOffset": 34104,
      "componentType": 5126,
      "count": 12,
      "max": [
        -7.843939781188965,
        -9.396900177001953,
        1.563480019569397
      ],
      "min": [
        -13.892900466918945,
        -10.899999618530273,
        0.913981020450592
      ],
      "type": "VEC3"
    },
    {
      "bufferView": 2,
      "byteOffset": 34248,
      "componentType": 5126,
      "count": 12,
      "max": [
        0.6236536502838135,
        1.0,
        0.0
      ],
      "min": [
        -0.6236536502838135,
        0.7815414071083069,
        -0.015788674354553223
      ],
      "type": "VEC3"
    },
    {
      "bufferView": 3,
      "byteOffset": 14832,
      "componentType": 5126,
      "count": 12,
      "max": [
        0.7816933989524841,
        0.0,
        0.022757630795240402,
        1.0
      ],
      "min": [
        -1.0,
        -0.6234325170516968,
        0.0,
        -1.0
      ],
      "type": "VEC4"
    },
    {
      "bufferView": 1,
      "byteOffset": 11368,
      "componentType": 5126,
      "count": 12,
      "max": [
        18.690399169921875,
        9.16096019744873
      ],
      "min": [
        -17.690399169921875,
        -8.497940063476563
      ],
      "type": "VEC2"
    },
    {
      "bufferView": 0,
      "byteOffset": 19248,
      "componentType": 5125,
      "count": 18,
      "type": "SCALAR"
    },
    {
      "bufferView": 2,
      "byteOffset": 34392,
      "componentType": 5126,
      "count": 137,
      "max": [
        -10.299300193786621,
        -25.268299102783203,
        2.516400098800659
      ],
      "min": [
        -11.4375,
        -25.4325008392334,
        1.9686399698257446
      ],
      "type": "VEC3"
    },
    {
      "bufferView": 2,
      "byteOffset": 36036,
      "componentType": 5126,
      "count": 137,
      "max": [
        0.9999690055847168,
        0.9486832022666931,
        0.9632912278175354
      ],
      "min": [
        -0.9999690055847168,
        -0.9632912278175354,
        -0.9632912278175354
      ],
      "type": "VEC3"
    },
    {
      "bufferView": 1,
      "byteOffset": 11464,
      "componentType": 5126,
      "count": 137,
      "max": [
        54.07109832763672,
        -0.9660400152206421
      ],
      "min": [
        53.92890167236328,
        -1.0342400074005127
      ],
      "type": "VEC2"
    },
    {
      "bufferView": 0,
      "byteOffset": 19320,
      "componentType": 5125,
      "count": 384,
      "type": "SCALAR"
    },
    {
      "bufferView": 2,
      "byteOffset": 37680,
      "componentType": 5126,
      "count": 1294,
      "max": [
        -10.170100212097168,
        -20.1023006439209,
        3.1140599250793457
      ],
      "min": [
        -11.77929973602295,
        -22.05459976196289,
        2.7188000679016113
      ],
      "type": "VEC3"
    },
    {
      "bufferView": 2,
      "byteOffset": 53208,
      "componentType": 5126,
      "count": 1294,
      "max": [
        0.9998760223388672,
        0.9874407052993774,
        1.0
      ],
      "min": [
        -0.9998760223388672,
        -0.9996901750564575,
        -1.0
      ],
      "type": "VEC3"
    },
    {
      "bufferView": 3,
      "byteOffset": 15024,
      "componentType": 5126,
      "count": 1294,
      "max": [
        0.9078015089035034,
        1.0,
        0.998651385307312,
        1.0
      ],
      "min": [
        -0.99985671043396,
        -1.0,
        -0.9971929788589478,
        1.0
      ],
      "type": "VEC4"
    },
    {
      "bufferView": 1,
      "byteOffset": 12560,
      "componentType": 5126,
      "count": 1294,
      "max": [
        5.417970180511475,
        4.421879768371582
      ],
      "min": [
        -4.417970180511475,
        -6.894529819488525
      ],
      "type": "VEC2"
    },
    {
      "bufferView": 0,
      "byteOffset": 20856,
      "componentType": 5125,
      "count": 5598,
      "type": "SCALAR"
    },
    {
      "bufferView": 2,
      "byteOffset": 68736,
      "componentType": 5126,
      "count": 168,
      "max": [
        -7.850560188293457,
        -14.042799949645996,
        2.9139199256896973
      ],
      "min": [
        -13.886300086975098,
        -14.335000038146973,
        2.613179922103882
      ],
      "type": "VEC3"
    },
    {
      "bufferView": 2,
      "byteOffset": 70752,
      "componentType": 5126,
      "count": 168,
      "max": [
        1.0,
        0.9677839875221252,
        0.9834901690483093
      ],
      "min": [
        -1.0,
        -0.8554087281227112,
        -0.9317079782485962
      ],
      "type": "VEC3"
    },
    {
      "bufferView": 1,
      "byteOffset": 22912,
      "componentType": 5126,
      "count": 168,
      "max": [
        0.3264159858226776,
        0.8344730138778687
      ],
      "min": [
        0.30224600434303284,
        0.8081049919128418
      ],
      "type": "VEC2"
    },
    {
      "bufferView": 0,
      "byteOffset": 43248,
      "componentType": 5125,
      "count": 408,
      "type": "SCALAR"
    },
    {
      "bufferView": 2,
      "byteOffset": 72768,
      "componentType": 5126,
      "count": 1366,
      "max": [
        -7.455880165100098,
        -9.345390319824219,
        4.11775016784668
      ],
      "min": [
        -14.275799751281738,
        -25.47279930114746,
        1.7016799449920654
      ],
      "type": "VEC3"
    },
    {
      "bufferView": 2,
      "byteOffset": 89160,
      "componentType": 5126,
      "count": 1366,
      "max": [
        0.9996901750564575,
        0.9763477444648743,
        0.9999690055847168
      ],
      "min": [
        -0.9996901750564575,
        -0.9992259740829468,
        -0.9994733929634094
      ],
      "type": "VEC3"
    },
    {
      "bufferView": 3,
      "byteOffset": 35728,
      "componentType": 5126,
      "count": 1366,
      "max": [
        1.0,
        0.9999606609344482,
        0.9962554574012756,
        1.0
      ],
      "min": [
        -1.0,
        -0.9998410940170288,
        -0.9947671294212341,
        -1.0
      ],
      "type": "VEC4"
    },
    {
      "bufferView": 1,
      "byteOffset": 24256,
      "componentType": 5126,
      "count": 1366,
      "max": [
        0.9985349774360657,
        0.9985349774360657
      ],
      "min": [
        0.005771640222519636,
        0.0013189299497753382
      ],
      "type": "VEC2"
    },
    {
      "bufferView": 0,
      "byteOffset": 44880,
      "componentType": 5125,
      "count": 5073,
      "type": "SCALAR"
    },
    {
      "bufferView": 2,
      "byteOffset": 105552,
      "componentType": 5126,
      "count": 10113,
      "max": [
        -7.246689796447754,
        -9.037460327148438,
        4.104259967803955
      ],
      "min": [
        -14.49020004272461,
        -25.824100494384766,
        0.4751009941101074
      ],
      "type": "VEC3"
    },
    {
      "bufferView": 2,
      "byteOffset": 226908,
      "componentType": 5126,
      "count": 10113,
      "max": [
        0.9999690055847168,
        0.9999690055847168,
        0.9997521042823792
      ],
      "min": [
        -1.0,
        -0.9998760223388672,
        -0.9999690055847168
      ],
      "type": "VEC3"
    },
    {
      "bufferView": 1,
      "byteOffset": 35184,
      "componentType": 5126,
      "count": 10113,
      "max": [
        35.75,
        27.875
      ],
      "min": [
        -59.6875,
        -27.25
      ],
      "type": "VEC2"
    },
    {
      "bufferView": 0,
      "byteOffset": 65172,
      "componentType": 5125,
      "count": 46305,
      "type": "SCALAR"
    },
    {
      "bufferView": 2,
      "byteOffset": 348264,
      "componentType": 5126,
      "count": 652,
      "max": [
        -7.0897698402404785,
        -15.007800102233887,
        3.554879903793335
      ],
      "min": [
        -14.696100234985352,
        -17.202600479125977,
        1.4731099605560303
      ],
      "type": "VEC3"
    },
    {
      "bufferView": 2,
      "byteOffset": 356088,
      "componentType": 5126,
      "count": 652,
      "max": [
        0.9979910850524902,
        0.9983610510826111,
        0.999721109867096
      ],
      "min": [
        -0.9979910850524902,
        -0.9867020845413208,
        -0.98157799243927
      ],
      "type": "VEC3"
    },
    {
      "bufferView": 1,
      "byteOffset": 116088,
      "componentType": 5126,
      "count": 652,
      "max": [
        7.7542901039123535,
        8.203269958496094
      ],
      "min": [
        -5.979859828948975,
        -8.670949935913086
      ],
      "type": "VEC2"
    },
    {
      "bufferView": 0,
      "byteOffset": 250392,
      "componentType": 5125,
      "count": 3051,
      "type": "SCALAR"
    },
    {
      "bufferView": 2,
      "byteOffset": 363912,
      "componentType": 5126,
      "count": 1820,
      "max": [
        -7.3020100593566895,
        -9.634530067443848,
        4.305659770965576
      ],
      "min": [
        -14.434800148010254,
        -25.297100067138672,
        0.3604170083999634
      ],
      "type": "VEC3"
    },
    {
      "bufferView": 2,
      "byteOffset": 385752,
      "componentType": 5126,
      "count": 1820,
      "max": [
        0.9999690055847168,
        1.0,
        0.9999690055847168
      ],
      "min": [
        -0.9999690055847168,
        -1.0,
        -1.0
      ],
      "type": "VEC3"
    },
    {
      "bufferView": 1,
      "byteOffset": 121304,
      "componentType": 5126,
      "count": 1820,
      "max": [
        58.8468017578125,
        -2.9494500160217285
      ],
      "min": [
        21.80579948425293,
        -51.97890090942383
      ],
      "type": "VEC2"
    },
    {
      "bufferView": 0,
      "byteOffset": 262596,
      "componentType": 5125,
      "count": 4854,
      "type": "SCALAR"
    },
    {
      "bufferView": 2,
      "byteOffset": 407592,
      "componentType": 5126,
      "count": 5422,
      "max": [
        -7.491980075836182,
        -13.33810043334961,
        1.9024800062179565
      ],
      "min": [
        -14.24839973449707,
        -23.6205997467041,
        0.6390230059623718
      ],
      "type": "VEC3"
    },
    {
      "bufferView": 2,
      "byteOffset": 472656,
      "componentType": 5126,
      "count": 5422,
      "max": [
        1.0,
        0.9999690055847168,
        1.0
      ],
      "min": [
        -1.0,
        -0.9999690055847168,
        -1.0
      ],
      "type": "VEC3"
    },
    {
      "bufferView": 1,
      "byteOffset": 135864,
      "componentType": 5126,
      "count": 5422,
      "max": [
        0.984375,
        0.9233400225639343
      ],
      "min": [
        0.0802002027630806,
        0.17553700506687164
      ],
      "type": "VEC2"
    },
    {
      "bufferView": 0,
      "byteOffset": 282012,
      "componentType": 5125,
      "count": 20298,
      "type": "SCALAR"
    },
    {
      "bufferView": 2,
      "byteOffset": 537720,
      "componentType": 5126,
      "count": 7035,
      "max": [
        -7.482840061187744,
        -13.299799919128418,
        1.9888800382614136
      ],
      "min": [
        -14.257499694824219,
        -22.535600662231445,
        0.6228820085525513
      ],
      "type": "VEC3"
    },
    {
      "bufferView": 2,
      "byteOffset": 622140,
      "componentType": 5126,
      "count": 7035,
      "max": [
        1.0,
        1.0,
        0.9999690055847168
      ],
      "min": [
        -1.0,
        -1.0,
        -1.0
      ],
      "type": "VEC3"
    },
    {
      "bufferView": 1,
      "byteOffset": 179240,
      "componentType": 5126,
      "count": 7035,
      "max": [
        0.8300780057907104,
        0.9775390028953552
      ],
      "min": [
        0.03945919871330261,
        0.6025390028953552
      ],
      "type": "VEC2"
    },
    {
      "bufferView": 0,
      "byteOffset": 363204,
      "componentType": 5125,
      "count": 26592,
      "type": "SCALAR"
    },
    {
      "bufferView": 2,
      "byteOffset": 706560,
      "componentType": 5126,
      "count": 44,
      "max": [
        -7.479519844055176,
        -13.409000396728516,
        1.6818100214004517
      ],
      "min": [
        -14.2608003616333,
        -22.32900047302246,
        1.0244100093841553
      ],
      "type": "VEC3"
    },
    {
      "bufferView": 2,
      "byteOffset": 707088,
      "componentType": 5126,
      "count": 44,
      "max": [
        1.0,
        -0.0,
        0.03148048743605614
      ],
      "min": [
        -1.0,
        -0.0,
        0.0
      ],
      "type": "VEC3"
    },
    {
      "bufferView": 1,
      "byteOffset": 235520,
      "componentType": 5126,
      "count": 44,
      "max": [
        1.010599970817566,
        1.0
      ],
      "min": [
        -0.02172210067510605,
        0.0
      ],
      "type": "VEC2"
    },
    {
      "bufferView": 0,
      "byteOffset": 469572,
      "componentType": 5125,
      "count": 84,
      "type": "SCALAR"
    },
    {
      "bufferView": 2,
      "byteOffset": 707616,
      "componentType": 5126,
      "count": 98,
      "max": [
        -7.152870178222656,
        -15.387200355529785,
        4.119530200958252
      ],
      "min": [
        -14.622699737548828,
        -15.707099914550781,
        3.1152899265289307
      ],
      "type": "VEC3"
    },
    {
      "bufferView": 2,
      "byteOffset": 708792,
      "componentType": 5126,
      "count": 98,
      "max": [
        0.44084930419921875,
        -0.746436357498169,
        0.33191490173339844
      ],
      "min": [
        -0.6316660642623901,
        -0.9884557127952576,
        -0.33890870213508606
      ],
      "type": "VEC3"
    },
    {
      "bufferView": 1,
      "byteOffset": 235872,
      "componentType": 5126,
      "count": 98,
      "max": [
        60.04750061035156,
        -8.987290382385254
      ],
      "min": [
        7.961490154266357,
        -37.025901794433594
      ],
      "type": "VEC2"
    },
    {
      "bufferView": 0,
      "byteOffset": 469908,
      "componentType": 5125,
      "count": 276,
      "type": "SCALAR"
    },
    {
      "bufferView": 2,
      "byteOffset": 709968,
      "componentType": 5126,
      "count": 9192,
      "max": [
        -7.095260143280029,
        -9.536609649658203,
        4.345630168914795
      ],
      "min": [
        -14.69320011138916,
        -23.740400314331055,
        1.2149399518966675
      ],
      "type": "VEC3"
    },
    {
      "bufferView": 2,
      "byteOffset": 820272,
      "componentType": 5126,
      "count": 9192,
      "max": [
        1.0,
        1.0,
        0.9999690055847168
      ],
      "min": [
        -1.0,
        -1.0,
        -0.999845027923584
      ],
      "type": "VEC3"
    },
    {
      "bufferView": 1,
      "byteOffset": 236656,
      "componentType": 5126,
      "count": 9192,
      "max": [
        0.9589840173721313,
        0.9589840173721313
      ],
      "min": [
        0.03625490143895149,
        0.4296880066394806
      ],
      "type": "VEC2"
    },
    {
      "bufferView": 0,
      "byteOffset": 471012,
      "componentType": 5125,
      "count": 30852,
      "type": "SCALAR"
    },
    {
      "bufferView": 2,
      "byteOffset": 930576,
      "componentType": 5126,
      "count": 7145,
      "max": [
        -7.276020050048828,
        -9.379389762878418,
        4.256360054016113
      ],
      "min": [
        -14.460800170898438,
        -25.44770050048828,
        0.36047300696372986
      ],
      "type": "VEC3"
    },
    {
      "bufferView": 2,
      "byteOffset": 1016316,
      "componentType": 5126,
      "count": 7145,
      "max": [
        1.0,
        1.0,
        1.0
      ],
      "min": [
        -1.0,
        -1.0,
        -1.0
      ],
      "type": "VEC3"
    },
    {
      "bufferView": 1,
      "byteOffset": 310192,
      "componentType": 5126,
      "count": 7145,
      "max": [
        0.9594730138778687,
        0.9599609971046448
      ],
      "min": [
        0.0,
        0.0
      ],
      "type": "VEC2"
    },
    {
      "bufferView": 0,
      "byteOffset": 594420,
      "componentType": 5125,
      "count": 27894,
      "type": "SCALAR"
    },
    {
      "bufferView": 2,
      "byteOffset": 1102056,
      "componentType": 5126,
      "count": 11875,
      "max": [
        -7.804409980773926,
        -9.21895980834961,
        4.426829814910889
      ],
      "min": [
        -13.932499885559082,
        -25.46489906311035,
        0.7849720120429993
      ],
      "type": "VEC3"
    },
    {
      "bufferView": 2,
      "byteOffset": 1244556,
      "componentType": 5126,
      "count": 11875,
      "max": [
        1.0,
        1.0,
        0.999845027923584
      ],
      "min": [
        -1.0,
        -0.9996901750564575,
        -1.0
      ],
      "type": "VEC3"
    },
    {
      "bufferView": 1,
      "byteOffset": 367352,
      "componentType": 5126,
      "count": 11875,
      "max": [
        0.9580079913139343,
        0.8242189884185791
      ],
      "min": [
        0.034484900534152985,
        0.4313960075378418
      ],
      "type": "VEC2"
    },
    {
      "bufferView": 0,
      "byteOffset": 705996,
      "componentType": 5125,
      "count": 59277,
      "type": "SCALAR"
    },
    {
      "bufferView": 2,
      "byteOffset": 1387056,
      "componentType": 5126,
      "count": 9621,
      "max": [
        -7.27603006362915,
        -9.267049789428711,
        4.282979965209961
      ],
      "min": [
        -14.460800170898438,
        -25.606800079345703,
        0.7124429941177368
      ],
      "type": "VEC3"
    },
    {
      "bufferView": 2,
      "byteOffset": 1502508,
      "componentType": 5126,
      "count": 9621,
      "max": [
        0.9999690055847168,
        1.0,
        1.0
      ],
      "min": [
        -0.9999690055847168,
        -1.0,
        -0.9999690055847168
      ],
      "type": "VEC3"
    },
    {
      "bufferView": 1,
      "byteOffset": 462352,
      "componentType": 5126,
      "count": 9621,
      "max": [
        0.3364259898662567,
        0.8422849774360657
      ],
      "min": [
        0.29541000723838806,
        0.7885739803314209
      ],
      "type": "VEC2"
    },
    {
      "bufferView": 0,
      "byteOffset": 943104,
      "componentType": 5125,
      "count": 31686,
      "type": "SCALAR"
    },
    {
      "bufferView": 2,
      "byteOffset": 1617960,
      "componentType": 5126,
      "count": 565,
      "max": [
        -10.779000282287598,
        -12.85569953918457,
        3.165839910507202
      ],
      "min": [
        -13.493499755859375,
        -13.665599822998047,
        2.754110097885132
      ],
      "type": "VEC3"
    },
    {
      "bufferView": 2,
      "byteOffset": 1624740,
      "componentType": 5126,
      "count": 565,
      "max": [
        0.9732452630996704,
        0.982729971408844,
        0.9886991381645203
      ],
      "min": [
        -0.9929882884025574,
        -0.9820625185966492,
        -0.8983064889907837
      ],
      "type": "VEC3"
    },
    {
      "bufferView": 1,
      "byteOffset": 539320,
      "componentType": 5126,
      "count": 565,
      "max": [
        0.3181149959564209,
        0.8354489803314209
      ],
      "min": [
        0.30615198612213135,
        0.8066409826278687
      ],
      "type": "VEC2"
    },
    {
      "bufferView": 0,
      "byteOffset": 1069848,
      "componentType": 5125,
      "count": 1839,
      "type": "SCALAR"
    },
    {
      "bufferView": 2,
      "byteOffset": 1631520,
      "componentType": 5126,
      "count": 294,
      "max": [
        -8.049229621887207,
        -15.044599533081055,
        2.636929988861084
      ],
      "min": [
        -13.691300392150879,
        -17.222200393676758,
        1.484470009803772
      ],
      "type": "VEC3"
    },
    {
      "bufferView": 2,
      "byteOffset": 1635048,
      "componentType": 5126,
      "count": 294,
      "max": [
        0.9986079335212708,
        0.8502881526947021,
        0.7907426357269287
      ],
      "min": [
        -0.9970064759254456,
        -0.8553823828697205,
        -0.9990094900131226
      ],
      "type": "VEC3"
    },
    {
      "bufferView": 3,
      "byteOffset": 57584,
      "componentType": 5126,
      "count": 294,
      "max": [
        0.7691317200660706,
        -0.26418232917785645,
        0.15193606913089752,
        1.0
      ],
      "min": [
        -0.9237300157546997,
        -0.9218958020210266,
        -0.8463086485862732,
        -1.0
      ],
      "type": "VEC4"
    },
    {
      "bufferView": 1,
      "byteOffset": 543840,
      "componentType": 5126,
      "count": 294,
      "max": [
        0.9830039739608765,
        0.9677730202674866
      ],
      "min": [
        0.01675949990749359,
        0.033058200031518936
      ],
      "type": "VEC2"
    },
    {
      "bufferView": 0,
      "byteOffset": 1077204,
      "componentType": 5125,
      "count": 1275,
      "type": "SCALAR"
    },
    {
      "bufferView": 2,
      "byteOffset": 1638576,
      "componentType": 5126,
      "count": 815,
      "max": [
        -7.093420028686523,
        -9.779500007629395,
        3.2163500785827637
      ],
      "min": [
        -14.692099571228027,
        -25.46660041809082,
        1.8141000270843506
      ],
      "type": "VEC3"
    },
    {
      "bufferView": 2,
      "byteOffset": 1648356,
      "componentType": 5126,
      "count": 815,
      "max": [
        0.9984536170959473,
        0.9368917346000671,
        0.9999690055847168
      ],
      "min": [
        -0.9984536170959473,
        -0.9993805885314941,
        -0.9999380111694336
      ],
      "type": "VEC3"
    },
    {
      "bufferView": 1,
      "byteOffset": 546192,
      "componentType": 5126,
      "count": 815,
      "max": [
        62.033199310302734,
        -16.96269989013672
      ],
      "min": [
        1.9573400020599365,
        -61.04460144042969
      ],
      "type": "VEC2"
    },
    {
      "bufferView": 0,
      "byteOffset": 1082304,
      "componentType": 5125,
      "count": 2682,
      "type": "SCALAR"
    },
    {
      "bufferView": 2,
      "byteOffset": 1658136,
      "componentType": 5126,
      "count": 880,
      "max": [
        -8.050640106201172,
        -13.259300231933594,
        4.3057098388671875
      ],
      "min": [
        -13.686200141906738,
        -23.574100494384766,
        3.1289100646972656
      ],
      "type": "VEC3"
    },
    {
      "bufferView": 2,
      "byteOffset": 1668696,
      "componentType": 5126,
      "count": 880,
      "max": [
        0.9379095435142517,
        0.9353564381599426,
        0.9861799478530884
      ],
      "min": [
        -0.9379095435142517,
        -0.9817898273468018,
        -0.9874098300933838
      ],
      "type": "VEC3"
    },
    {
      "bufferView": 1,
      "byteOffset": 552712,
      "componentType": 5126,
      "count": 880,
      "max": [
        52.1796989440918,
        -2.755539894104004
      ],
      "min": [
        1.7555400133132935,
        -59.19839859008789
      ],
      "type": "VEC2"
    },
    {
      "bufferView": 0,
      "byteOffset": 1093032,
      "componentType": 5125,
      "count": 3132,
      "type": "SCALAR"
    },
    {
      "bufferView": 2,
      "byteOffset": 1679256,
      "componentType": 5126,
      "count": 3242,
      "max": [
        -7.591650009155273,
        -9.66415023803711,
        3.5539801120758057
      ],
      "min": [
        -14.1451997756958,
        -18.99489974975586,
        0.9786199927330017
      ],
      "type": "VEC3"
    },
    {
      "bufferView": 2,
      "byteOffset": 1718160,
      "componentType": 5126,
      "count": 3242,
      "max": [
        0.9998760223388672,
        0.9999380111694336,
        0.9983918070793152
      ],
      "min": [
        -0.9998760223388672,
        -0.9937601089477539,
        -0.9977139234542847
      ],
      "type": "VEC3"
    },
    {
      "bufferView": 3,
      "byteOffset": 62288,
      "componentType": 5126,
      "count": 3242,
      "max": [
        0.9998531937599182,
        0.9999926686286926,
        0.9997391104698181,
        1.0
      ],
      "min": [
        -0.9998867511749268,
        -0.9999691247940063,
        -0.9998065829277039,
        -1.0
      ],
      "type": "VEC4"
    },
    {
      "bufferView": 1,
      "byteOffset": 559752,
      "componentType": 5126,
      "count": 3242,
      "max": [
        1.4921900033950806,
        0.9921879768371582
      ],
      "min": [
        -0.9091799855232239,
        0.008857729844748974
      ],
      "type": "VEC2"
    },
    {
      "bufferView": 0,
      "byteOffset": 1105560,
      "componentType": 5125,
      "count": 11901,
      "type": "SCALAR"
    },
    {
      "bufferView": 2,
      "byteOffset": 1757064,
      "componentType": 5126,
      "count": 15462,
      "max": [
        -7.368810176849365,
        -9.500829696655273,
        4.537099838256836
      ],
      "min": [
        -14.368000030517578,
        -19.9197998046875,
        0.5740939974784851
      ],
      "type": "VEC3"
    },
    {
      "bufferView": 2,
      "byteOffset": 1942608,
      "componentType": 5126,
      "count": 15462,
      "max": [
        1.0,
        1.0,
        1.0
      ],
      "min": [
        -1.0,
        -1.0,
        -1.0
      ],
      "type": "VEC3"
    },
    {
      "bufferView": 3,
      "byteOffset": 114160,
      "componentType": 5126,
      "count": 15462,
      "max": [
        1.0,
        1.0,
        1.0,
        1.0
      ],
      "min": [
        -1.0,
        -1.0,
        -1.0,
        -1.0
      ],
      "type": "VEC4"
    },
    {
      "bufferView": 1,
      "byteOffset": 585688,
      "componentType": 5126,
      "count": 15462,
      "max": [
        2.3320300579071045,
        0.9956049919128418
      ],
      "min": [
        -0.9790040254592896,
        0.006446839775890112
      ],
      "type": "VEC2"
    },
    {
      "bufferView": 0,
      "byteOffset": 1153164,
      "componentType": 5125,
      "count": 59244,
      "type": "SCALAR"
    },
    {
      "bufferView": 2,
      "byteOffset": 2128152,
      "componentType": 5126,
      "count": 15104,
      "max": [
        -7.530200004577637,
        -14.849100112915039,
        4.231510162353516
      ],
      "min": [
        -14.206700325012207,
        -24.04509925842285,
        0.5621010065078735
      ],
      "type": "VEC3"
    },
    {
      "bufferView": 2,
      "byteOffset": 2309400,
      "componentType": 5126,
      "count": 15104,
      "max": [
        1.0,
        1.0,
        1.0
      ],
      "min": [
        -1.0,
        -0.9999690055847168,
        -0.9998760223388672
      ],
      "type": "VEC3"
    },
    {
      "bufferView": 3,
      "byteOffset": 361552,
      "componentType": 5126,
      "count": 15104,
      "max": [
        1.0,
        1.0,
        1.0,
        1.0
      ],
      "min": [
        -1.0,
        -1.0,
        -1.0,
        -1.0
      ],
      "type": "VEC4"
    },
    {
      "bufferView": 1,
      "byteOffset": 709384,
      "componentType": 5126,
      "count": 15104,
      "max": [
        0.9921879768371582,
        0.9956049919128418
      ],
      "min": [
        -1.5712900161743164,
        0.006549839861690998
      ],
      "type": "VEC2"
    },
    {
      "bufferView": 0,
      "byteOffset": 1390140,
      "componentType": 5125,
      "count": 54444,
      "type": "SCALAR"
    },
    {
      "bufferView": 2,
      "byteOffset": 2490648,
      "componentType": 5126,
      "count": 10642,
      "max": [
        -7.794099807739258,
        -20.331499099731445,
        3.7516698837280273
      ],
      "min": [
        -13.94279956817627,
        -25.571800231933594,
        1.2555099725723267
      ],
      "type": "VEC3"
    },
    {
      "bufferView": 2,
      "byteOffset": 2618352,
      "componentType": 5126,
      "count": 10642,
      "max": [
        1.0,
        1.0,
        1.0
      ],
      "min": [
        -1.0,
        -1.0,
        -1.0
      ],
      "type": "VEC3"
    },
    {
      "bufferView": 3,
      "byteOffset": 603216,
      "componentType": 5126,
      "count": 10642,
      "max": [
        1.0,
        1.0,
        1.0,
        1.0
      ],
      "min": [
        -1.0,
        -1.0,
        -1.0,
        -1.0
      ],
      "type": "VEC4"
    },
    {
      "bufferView": 1,
      "byteOffset": 830216,
      "componentType": 5126,
      "count": 10642,
      "max": [
        0.8891599774360657,
        0.02856449969112873
      ],
      "min": [
        0.7861329913139343,
        0.018249500542879105
      ],
      "type": "VEC2"
    },
    {
      "bufferView": 0,
      "byteOffset": 1607916,
      "componentType": 5125,
      "count": 36897,
      "type": "SCALAR"
    },
    {
      "bufferView": 2,
      "byteOffset": 2746056,
      "componentType": 5126,
      "count": 4315,
      "max": [
        -10.416099548339844,
        -13.693900108337402,
        4.204440116882324
      ],
      "min": [
        -12.93220043182373,
        -17.032400131225586,
        0.770359992980957
      ],
      "type": "VEC3"
    },
    {
      "bufferView": 2,
      "byteOffset": 2797836,
      "componentType": 5126,
      "count": 4315,
      "max": [
        1.0,
        0.9999380111694336,
        0.9999690055847168
      ],
      "min": [
        -1.0,
        -1.0,
        -0.9987622499465942
      ],
      "type": "VEC3"
    },
    {
      "bufferView": 3,
      "byteOffset": 773488,
      "componentType": 5126,
      "count": 4315,
      "max": [
        1.0,
        0.9997188448905945,
        0.997945249080658,
        1.0
      ],
      "min": [
        -1.0,
        -1.0,
        -0.9999690651893616,
        -1.0
      ],
      "type": "VEC4"
    },
    {
      "bufferView": 1,
      "byteOffset": 915352,
      "componentType": 5126,
      "count": 4315,
      "max": [
        0.9980469942092896,
        0.9951170086860657
      ],
      "min": [
        0.0055275000631809235,
        0.0012226100079715252
      ],
      "type": "VEC2"
    },
    {
      "bufferView": 0,
      "byteOffset": 1755504,
      "componentType": 5125,
      "count": 16056,
      "type": "SCALAR"
    },
    {
      "bufferView": 2,
      "byteOffset": 2849616,
      "componentType": 5126,
      "count": 1288,
      "max": [
        -8.062150001525879,
        -13.223799705505371,
        3.2731399536132813
      ],
      "min": [
        -13.674699783325195,
        -18.693099975585938,
        2.388279914855957
      ],
      "type": "VEC3"
    },
    {
      "bufferView": 2,
      "byteOffset": 2865072,
      "componentType": 5126,
      "count": 1288,
      "max": [
        0.9995972514152527,
        0.9907448887825012,
        0.9999380111694336
      ],
      "min": [
        -0.9995972514152527,
        -0.9969757795333862,
        -0.9420824646949768
      ],
      "type": "VEC3"
    },
    {
      "bufferView": 3,
      "byteOffset": 842528,
      "componentType": 5126,
      "count": 1288,
      "max": [
        0.9995119571685791,
        0.9998679757118225,
        0.9920109510421753,
        1.0
      ],
      "min": [
        -0.9880748391151428,
        -0.999858021736145,
        -0.9994214773178101,
        -1.0
      ],
      "type": "VEC4"
    },
    {
      "bufferView": 1,
      "byteOffset": 949872,
      "componentType": 5126,
      "count": 1288,
      "max": [
        373.75,
        382.25
      ],
      "min": [
        -431.75,
        -421.0
      ],
      "type": "VEC2"
    },
    {
      "bufferView": 0,
      "byteOffset": 1819728,
      "componentType": 5125,
      "count": 5478,
      "type": "SCALAR"
    },
    {
      "bufferView": 2,
      "byteOffset": 2880528,
      "componentType": 5126,
      "count": 885,
      "max": [
        -7.743529796600342,
        -10.344200134277344,
        4.387660026550293
      ],
      "min": [
        -13.993300437927246,
        -25.315200805664063,
        1.957800030708313
      ],
      "type": "VEC3"
    },
    {
      "bufferView": 2,
      "byteOffset": 2891148,
      "componentType": 5126,
      "count": 885,
      "max": [
        0.8964159488677979,
        1.0,
        0.9885774254798889
      ],
      "min": [
        -0.8964159488677979,
        -0.9715204834938049,
        -0.4895871877670288
      ],
      "type": "VEC3"
    },
    {
      "bufferView": 1,
      "byteOffset": 960176,
      "componentType": 5126,
      "count": 885,
      "max": [
        1.0,
        0.9721680283546448
      ],
      "min": [
        -0.5151370167732239,
        0.08007810264825821
      ],
      "type": "VEC2"
    },
    {
      "bufferView": 0,
      "byteOffset": 1841640,
      "componentType": 5125,
      "count": 2859,
      "type": "SCALAR"
    },
    {
      "bufferView": 2,
      "byteOffset": 2901768,
      "componentType": 5126,
      "count": 11889,
      "max": [
        -7.682310104370117,
        -9.787309646606445,
        2.9207100868225098
      ],
      "min": [
        -14.05459976196289,
        -25.36680030822754,
        1.7819700241088867
      ],
      "type": "VEC3"
    },
    {
      "bufferView": 2,
      "byteOffset": 3044436,
      "componentType": 5126,
      "count": 11889,
      "max": [
        1.0,
        1.0,
        1.0
      ],
      "min": [
        -1.0,
        -0.9984844326972961,
        -1.0
      ],
      "type": "VEC3"
    },
    {
      "bufferView": 1,
      "byteOffset": 967256,
      "componentType": 5126,
      "count": 11889,
      "max": [
        1.5087900161743164,
        0.8632810115814209
      ],
      "min": [
        -0.0047073401510715485,
        0.1931149959564209
      ],
      "type": "VEC2"
    },
    {
      "bufferView": 0,
      "byteOffset": 1853076,
      "componentType": 5125,
      "count": 32604,
      "type": "SCALAR"
    },
    {
      "bufferView": 2,
      "byteOffset": 3187104,
      "componentType": 5126,
      "count": 833,
      "max": [
        -7.095029830932617,
        -9.86316967010498,
        3.2163500785827637
      ],
      "min": [
        -14.691800117492676,
        -25.46660041809082,
        1.9796199798583984
      ],
      "type": "VEC3"
    },
    {
      "bufferView": 2,
      "byteOffset": 3197100,
      "componentType": 5126,
      "count": 833,
      "max": [
        0.9994733929634094,
        0.9993805885314941,
        0.9942240118980408
      ],
      "min": [
        -0.9994733929634094,
        -0.9992259740829468,
        -0.9999380111694336
      ],
      "type": "VEC3"
    },
    {
      "bufferView": 1,
      "byteOffset": 1062368,
      "componentType": 5126,
      "count": 833,
      "max": [
        0.9887700080871582,
        0.9926760196685791
      ],
      "min": [
        0.00969696044921875,
        0.0034523000940680504
      ],
      "type": "VEC2"
    },
    {
      "bufferView": 0,
      "byteOffset": 1983492,
      "componentType": 5125,
      "count": 2409,
      "type": "SCALAR"
    },
    {
      "bufferView": 2,
      "byteOffset": 3207096,
      "componentType": 5126,
      "count": 2615,
      "max": [
        -8.176939964294434,
        -13.376199722290039,
        4.535990238189697
      ],
      "min": [
        -13.559900283813477,
        -19.1835994720459,
        1.146049976348877
      ],
      "type": "VEC3"
    },
    {
      "bufferView": 2,
      "byteOffset": 3238476,
      "componentType": 5126,
      "count": 2615,
      "max": [
        0.9991022348403931,
        0.9974983334541321,
        0.9999380111694336
      ],
      "min": [
        -0.9991022348403931,
        -0.9929882884025574,
        -0.9980218410491943
      ],
      "type": "VEC3"
    },
    {
      "bufferView": 3,
      "byteOffset": 863136,
      "componentType": 5126,
      "count": 2615,
      "max": [
        1.0,
        0.999968409538269,
        0.9974985718727112,
        1.0
      ],
      "min": [
        -1.0,
        -0.9999861717224121,
        -0.9938658475875854,
        -1.0
      ],
      "type": "VEC4"
    },
    {
      "bufferView": 1,
      "byteOffset": 1069032,
      "componentType": 5126,
      "count": 2615,
      "max": [
        2.2871100902557373,
        0.9667969942092896
      ],
      "min": [
        -1.5566400289535522,
        0.4335939884185791
      ],
      "type": "VEC2"
    },
    {
      "bufferView": 0,
      "byteOffset": 1993128,
      "componentType": 5125,
      "count": 7401,
      "type": "SCALAR"
    },
    {
      "bufferView": 2,
      "byteOffset": 3269856,
      "componentType": 5126,
      "count": 5751,
      "max": [
        -7.354320049285889,
        -11.701299667358398,
        2.4059200286865234
      ],
      "min": [
        -8.310179710388184,
        -14.107799530029297,
        0.11719299852848053
      ],
      "type": "VEC3"
    },
    {
      "bufferView": 2,
      "byteOffset": 3338868,
      "componentType": 5126,
      "count": 5751,
      "max": [
        1.0,
        1.0,
        1.0
      ],
      "min": [
        -1.0,
        -1.0,
        -1.0
      ],
      "type": "VEC3"
    },
    {
      "bufferView": 3,
      "byteOffset": 904976,
      "componentType": 5126,
      "count": 5751,
      "max": [
        1.0,
        1.0,
        1.0,
        1.0
      ],
      "min": [
        -1.0,
        -0.9999690651893616,
        -1.0,
        -1.0
      ],
      "type": "VEC4"
    },
    {
      "bufferView": 1,
      "byteOffset": 1089952,
      "componentType": 5126,
      "count": 5751,
      "max": [
        0.7563480138778687,
        0.8227540254592896
      ],
      "min": [
        0.005142210051417351,
        0.008239749819040298
      ],
      "type": "VEC2"
    },
    {
      "bufferView": 0,
      "byteOffset": 2022732,
      "componentType": 5125,
      "count": 23655,
      "type": "SCALAR"
    },
    {
      "bufferView": 2,
      "byteOffset": 3407880,
      "componentType": 5126,
      "count": 9113,
      "max": [
        -7.349629878997803,
        -11.682900428771973,
        2.4831700325012207
      ],
      "min": [
        -14.38599967956543,
        -14.126099586486816,
        0.03997490182518959
      ],
      "type": "VEC3"
    },
    {
      "bufferView": 2,
      "byteOffset": 3517236,
      "componentType": 5126,
      "count": 9113,
      "max": [
        1.0,
        1.0,
        1.0
      ],
      "min": [
        -1.0,
        -1.0,
        -1.0
      ],
      "type": "VEC3"
    },
    {
      "bufferView": 3,
      "byteOffset": 996992,
      "componentType": 5126,
      "count": 9113,
      "max": [
        1.0,
        0.9999996423721313,
        1.0,
        1.0
      ],
      "min": [
        -1.0,
        -1.0,
        -1.0,
        -1.0
      ],
      "type": "VEC4"
    },
    {
      "bufferView": 1,
      "byteOffset": 1135960,
      "componentType": 5126,
      "count": 9113,
      "max": [
        0.9897459745407104,
        0.9975590109825134
      ],
      "min": [
        0.005142210051417351,
        0.008239749819040298
      ],
      "type": "VEC2"
    },
    {
      "bufferView": 0,
      "byteOffset": 2117352,
      "componentType": 5125,
      "count": 33771,
      "type": "SCALAR"
    },
    {
      "bufferView": 2,
      "byteOffset": 3626592,
      "componentType": 5126,
      "count": 7106,
      "max": [
        -7.27331018447876,
        -11.682999610900879,
        2.4874401092529297
      ],
      "min": [
        -14.390700340270996,
        -24.01689910888672,
        0.03997499868273735
      ],
      "type": "VEC3"
    },
    {
      "bufferView": 2,
      "byteOffset": 3711864,
      "componentType": 5126,
      "count": 7106,
      "max": [
        1.0,
        1.0,
        0.9999690055847168
      ],
      "min": [
        -1.0,
        -0.9999690055847168,
        -0.9999690055847168
      ],
      "type": "VEC3"
    },
    {
      "bufferView": 3,
      "byteOffset": 1142800,
      "componentType": 5126,
      "count": 7106,
      "max": [
        1.0,
        1.0,
        1.0,
        1.0
      ],
      "min": [
        -1.0,
        -0.9999992251396179,
        -1.0,
        -1.0
      ],
      "type": "VEC4"
    },
    {
      "bufferView": 1,
      "byteOffset": 1208864,
      "componentType": 5126,
      "count": 7106,
      "max": [
        0.9897459745407104,
        0.9877930283546448
      ],
      "min": [
        0.005142210051417351,
        0.008239749819040298
      ],
      "type": "VEC2"
    },
    {
      "bufferView": 0,
      "byteOffset": 2252436,
      "componentType": 5125,
      "count": 28731,
      "type": "SCALAR"
    },
    {
      "bufferView": 2,
      "byteOffset": 3797136,
      "componentType": 5126,
      "count": 9162,
      "max": [
        -7.268650054931641,
        -21.525699615478516,
        2.61476993560791
      ],
      "min": [
        -14.44950008392334,
        -24.104900360107422,
        0.035551998764276505
      ],
      "type": "VEC3"
    },
    {
      "bufferView": 2,
      "byteOffset": 3907080,
      "componentType": 5126,
      "count": 9162,
      "max": [
        1.0,
        0.9999690055847168,
        0.9999690055847168
      ],
      "min": [
        -1.0,
        -1.0,
        -0.9999690055847168
      ],
      "type": "VEC3"
    },
    {
      "bufferView": 3,
      "byteOffset": 1256496,
      "componentType": 5126,
      "count": 9162,
      "max": [
        1.0,
        0.9999992251396179,
        1.0,
        1.0
      ],
      "min": [
        -1.0,
        -1.0,
        -1.0,
        -1.0
      ],
      "type": "VEC4"
    },
    {
      "bufferView": 1,
      "byteOffset": 1265712,
      "componentType": 5126,
      "count": 9162,
      "max": [
        0.9897459745407104,
        0.9975590109825134
      ],
      "min": [
        0.005142210051417351,
        0.008239749819040298
      ],
      "type": "VEC2"
    },
    {
      "bufferView": 0,
      "byteOffset": 2367360,
      "componentType": 5125,
      "count": 34491,
      "type": "SCALAR"
    },
    {
      "bufferView": 2,
      "byteOffset": 4017024,
      "componentType": 5126,
      "count": 1426,
      "max": [
        -13.269599914550781,
        -21.515199661254883,
        2.61476993560791
      ],
      "min": [
        -14.45419979095459,
        -24.09440040588379,
        0.035551998764276505
      ],
      "type": "VEC3"
    },
    {
      "bufferView": 2,
      "byteOffset": 4034136,
      "componentType": 5126,
      "count": 1426,
      "max": [
        1.0,
        0.9999690055847168,
        0.9999690055847168
      ],
      "min": [
        -1.0,
        -0.9999690055847168,
        -0.9999690055847168
      ],
      "type": "VEC3"
    },
    {
      "bufferView": 3,
      "byteOffset": 1403088,
      "componentType": 5126,
      "count": 1426,
      "max": [
        1.0,
        1.0,
        0.9999887347221375,
        1.0
      ],
      "min": [
        -0.8536361455917358,
        -0.9998995661735535,
        -0.9997987747192383,
        1.0
      ],
      "type": "VEC4"
    },
    {
      "bufferView": 1,
      "byteOffset": 1339008,
      "componentType": 5126,
      "count": 1426,
      "max": [
        0.9897459745407104,
        0.9877930283546448
      ],
      "min": [
        0.11907999962568283,
        0.11901900172233582
      ],
      "type": "VEC2"
    },
    {
      "bufferView": 0,
      "byteOffset": 2505324,
      "componentType": 5125,
      "count": 4896,
      "type": "SCALAR"
    },
    {
      "bufferView": 2,
      "byteOffset": 4051248,
      "componentType": 5126,
      "count": 2646,
      "max": [
        -7.359950065612793,
        -14.413000106811523,
        3.262739896774292
      ],
      "min": [
        -14.376899719238281,
        -19.431900024414063,
        0.7778880000114441
      ],
      "type": "VEC3"
    },
    {
      "bufferView": 2,
      "byteOffset": 4083000,
      "componentType": 5126,
      "count": 2646,
      "max": [
        0.9999690055847168,
        0.9992258548736572,
        0.999721109867096
      ],
      "min": [
        -0.9999690055847168,
        -0.9916343092918396,
        -1.0
      ],
      "type": "VEC3"
    },
    {
      "bufferView": 1,
      "byteOffset": 1350416,
      "componentType": 5126,
      "count": 2646,
      "max": [
        58.31370162963867,
        -12.686300277709961
      ],
      "min": [
        49.68629837036133,
        -45.3135986328125
      ],
      "type": "VEC2"
    },
    {
      "bufferView": 0,
      "byteOffset": 2524908,
      "componentType": 5125,
      "count": 8928,
      "type": "SCALAR"
    },
    {
      "bufferView": 2,
      "byteOffset": 4114752,
      "componentType": 5126,
      "count": 13455,
      "max": [
        -7.29217004776001,
        -9.234129905700684,
        4.624959945678711
      ],
      "min": [
        -14.444700241088867,
        -25.7322998046875,
        0.5821229815483093
      ],
      "type": "VEC3"
    },
    {
      "bufferView": 2,
      "byteOffset": 4276212,
      "componentType": 5126,
      "count": 13455,
      "max": [
        1.0,
        0.9999690055847168,
        1.0
      ],
      "min": [
        -1.0,
        -1.0,
        -1.0
      ],
      "type": "VEC3"
    },
    {
      "bufferView": 1,
      "byteOffset": 1371584,
      "componentType": 5126,
      "count": 13455,
      "max": [
        17.006999969482422,
        -39.96969985961914
      ],
      "min": [
        14.993000030517578,
        -42.030799865722656
      ],
      "type": "VEC2"
    },
    {
      "bufferView": 0,
      "byteOffset": 2560620,
      "componentType": 5125,
      "count": 49377,
      "type": "SCALAR"
    },
    {
      "bufferView": 2,
      "byteOffset": 4437672,
      "componentType": 5126,
      "count": 4736,
      "max": [
        -7.352709770202637,
        -9.4443998336792,
        3.141590118408203
      ],
      "min": [
        -14.384200096130371,
        -14.486200332641602,
        2.093709945678711
      ],
      "type": "VEC3"
    },
    {
      "bufferView": 2,
      "byteOffset": 4494504,
      "componentType": 5126,
      "count": 4736,
      "max": [
        0.9999690055847168,
        0.9998760223388672,
        0.999845027923584
      ],
      "min": [
        -0.9999690055847168,
        -0.9988859295845032,
        -0.9999380111694336
      ],
      "type": "VEC3"
    },
    {
      "bufferView": 1,
      "byteOffset": 1479224,
      "componentType": 5126,
      "count": 4736,
      "max": [
        50.438899993896484,
        -32.684898376464844
      ],
      "min": [
        49.561100006103516,
        -33.315101623535156
      ],
      "type": "VEC2"
    },
    {
      "bufferView": 0,
      "byteOffset": 2758128,
      "componentType": 5125,
      "count": 21510,
      "type": "SCALAR"
    },
    {
      "bufferView": 2,
      "byteOffset": 4551336,
      "componentType": 5126,
      "count": 7116,
      "max": [
        -7.7764201164245605,
        -24.73979949951172,
        2.5293800830841064
      ],
      "min": [
        -11.386500358581543,
        -25.430700302124023,
        1.8689500093460083
      ],
      "type": "VEC3"
    },
    {
      "bufferView": 2,
      "byteOffset": 4636728,
      "componentType": 5126,
      "count": 7116,
      "max": [
        0.9469683766365051,
        0.9936056733131409,
        0.9992259740829468
      ],
      "min": [
        -0.9994733929634094,
        -0.999721109867096,
        -0.9999690055847168
      ],
      "type": "VEC3"
    },
    {
      "bufferView": 1,
      "byteOffset": 1517112,
      "componentType": 5126,
      "count": 7116,
      "max": [
        0.1389160007238388,
        0.05303959921002388
      ],
      "min": [
        0.10510300099849701,
        0.030700700357556343
      ],
      "type": "VEC2"
    },
    {
      "bufferView": 0,
      "byteOffset": 2844168,
      "componentType": 5125,
      "count": 31386,
      "type": "SCALAR"
    },
    {
      "bufferView": 2,
      "byteOffset": 4722120,
      "componentType": 5126,
      "count": 10397,
      "max": [
        -7.973030090332031,
        -18.687299728393555,
        3.1971399784088135
      ],
      "min": [
        -13.96049976348877,
        -25.421100616455078,
        1.8672000169754028
      ],
      "type": "VEC3"
    },
    {
      "bufferView": 2,
      "byteOffset": 4846884,
      "componentType": 5126,
      "count": 10397,
      "max": [
        1.0,
        1.0,
        1.0
      ],
      "min": [
        -1.0,
        -0.9998760223388672,
        -0.9999690055847168
      ],
      "type": "VEC3"
    },
    {
      "bufferView": 1,
      "byteOffset": 1574040,
      "componentType": 5126,
      "count": 10397,
      "max": [
        0.9760739803314209,
        0.9755859971046448
      ],
      "min": [
        0.024230999872088432,
        0.030700700357556343
      ],
      "type": "VEC2"
    },
    {
      "bufferView": 0,
      "byteOffset": 2969712,
      "componentType": 5125,
      "count": 42075,
      "type": "SCALAR"
    }
  ],
  "asset": {
    "extras": {
      "author": "GT Cars: Hyperspeed (https://sketchfab.com/Car2022)",
      "license": "CC-BY-4.0 (http://creativecommons.org/licenses/by/4.0/)",
      "source": "https://sketchfab.com/3d-models/audi-r8-gt-type-4s-be4fbfc9e45f480bb9e629378149f7fe",
      "title": "Audi R8 GT (Type 4S)"
    },
    "generator": "Sketchfab-16.59.0",
    "version": "2.0"
  },
  "bufferViews": [
    {
      "buffer": 0,
      "byteLength": 3138012,
      "name": "floatBufferViews",
      "target": 34963
    },
    {
      "buffer": 0,
      "byteLength": 1657216,
      "byteOffset": 3138012,
      "byteStride": 8,
      "name": "floatBufferViews",
      "target": 34962
    },
    {
      "buffer": 0,
      "byteLength": 4971648,
      "byteOffset": 4795228,
      "byteStride": 12,
      "name": "floatBufferViews",
      "target": 34962
    },
    {
      "buffer": 0,
      "byteLength": 1425904,
      "byteOffset": 9766876,
      "byteStride": 16,
      "name": "floatBufferViews",
      "target": 34962
    }
  ],
  "buffers": [
    {
      "byteLength": 11192780,
      "uri": "scene.bin"
    }
  ],
  "images": [
    {
      "uri": "textures/Badge1Mtl_baseColor.png"
    },
    {
      "uri": "textures/Badge1Mtl_metallicRoughness.png"
    },
    {
      "uri": "textures/Badge1Mtl_normal.png"
    },
    {
      "uri": "textures/Caliperrr0011Mtl_baseColor.png"
    },
    {
      "uri": "textures/Caliperrr0011Mtl_metallicRoughness.png"
    },
    {
      "uri": "textures/Caliperrr0011Mtl_emissive.png"
    },
    {
      "uri": "textures/Caliperrr1Mtl_baseColor.png"
    },
    {
      "uri": "textures/Caliperrr1Mtl_metallicRoughness.png"
    },
    {
      "uri": "textures/Caliperrr1Mtl_emissive.png"
    },
    {
      "uri": "textures/Carbon1details1Mtl_baseColor.png"
    },
    {
      "uri": "textures/Carbon1details1Mtl_metallicRoughness.png"
    },
    {
      "uri": "textures/Coloured0051Mtl_baseColor.png"
    },
    {
      "uri": "textures/Coloured0051Mtl_metallicRoughness.png"
    },
    {
      "uri": "textures/Doorrfgrille71Mtl_baseColor.png"
    },
    {
      "uri": "textures/Doorrfgrille71Mtl_metallicRoughness.png"
    },
    {
      "uri": "textures/Doorrfgrille71Mtl_normal.png"
    },
    {
      "uri": "textures/Glass0011Mtl_metallicRoughness.png"
    },
    {
      "uri": "textures/Glass0011Mtl_emissive.png"
    },
    {
      "uri": "textures/Grille11Mtl_baseColor.png"
    },
    {
      "uri": "textures/Grille11Mtl_metallicRoughness.png"
    },
    {
      "uri": "textures/Grille11Mtl_normal.png"
    },
    {
      "uri": "textures/Grille21Mtl_baseColor.png"
    },
    {
      "uri": "textures/Grille21Mtl_metallicRoughness.png"
    },
    {
      "uri": "textures/Grille21Mtl_emissive.png"
    },
    {
      "uri": "textures/Grille21Mtl_normal.png"
    },
    {
      "uri": "textures/Grille31Mtl_baseColor.png"
    },
    {
      "uri": "textures/Grille31Mtl_metallicRoughness.png"
    },
    {
      "uri": "textures/Grille31Mtl_normal.png"
    },
    {
      "uri": "textures/Grille41Mtl_baseColor.png"
    },
    {
      "uri": "textures/Grille41Mtl_metallicRoughness.png"
    },
    {
      "uri": "textures/Grille41Mtl_normal.png"
    },
    {
      "uri": "textures/Grille51Mtl_baseColor.png"
    },
    {
      "uri": "textures/Grille51Mtl_metallicRoughness.png"
    },
    {
      "uri": "textures/Grille51Mtl_emissive.png"
    },
    {
      "uri": "textures/Grille51Mtl_normal.png"
    },
    {
      "uri": "textures/Grille61Mtl_baseColor.png"
    },
    {
      "uri": "textures/Grille61Mtl_metallicRoughness.png"
    },
    {
      "uri": "textures/Grille61Mtl_emissive.png"
    },
    {
      "uri": "textures/Grille61Mtl_normal.png"
    },
    {
      "uri": "textures/Grille81Mtl_baseColor.png"
    },
    {
      "uri": "textures/Grille81Mtl_metallicRoughness.png"
    },
    {
      "uri": "textures/Grille81Mtl_emissive.png"
    },
    {
      "uri": "textures/Grille81Mtl_normal.png"
    },
    {
      "uri": "textures/Interioremissive1Mtl_baseColor.png"
    },
    {
      "uri": "textures/Interioremissive1Mtl_metallicRoughness.png"
    },
    {
      "uri": "textures/Interioremissive1Mtl_normal.png"
    },
    {
      "uri": "textures/Interiortilling1Mtl_baseColor.png"
    },
    {
      "uri": "textures/Interiortilling1Mtl_metallicRoughness.png"
    },
    {
      "uri": "textures/Interiortilling1Mtl_normal.png"
    },
    {
      "uri": "textures/Light0061Mtl_baseColor.png"
    },
    {
      "uri": "textures/Light0061Mtl_metallicRoughness.png"
    },
    {
      "uri": "textures/Speculartint1Mtl_baseColor.png"
    },
    {
      "uri": "textures/Speculartint1Mtl_metallicRoughness.png"
    },
    {
      "uri": "textures/Speculartint1Mtl_emissive.png"
    },
    {
      "uri": "textures/Speculartint1Mtl_normal.png"
    },
    {
      "uri": "textures/Textured24811Mtl_baseColor.png"
    },
    {
      "uri": "textures/Textured24811Mtl_metallicRoughness.png"
    },
    {
      "uri": "textures/Trunkhinge2coloured1Mtl_baseColor.png"
    },
    {
      "uri": "textures/Wheel01lr0011Mtl_baseColor.png"
    },
    {
      "uri": "textures/Wheel01lr0011Mtl_metallicRoughness.png"
    },
    {
      "uri": "textures/Wheel01lr0011Mtl_emissive.png"
    },
    {
      "uri": "textures/Wheel01lr0011Mtl_normal.png"
    }
  ],
  "materials": [
    {
      "doubleSided": true,
      "emissiveTexture": {
        "index": 0
      },
      "name": "Badge1Mtl",
      "normalTexture": {
        "index": 2
      },
      "pbrMetallicRoughness": {
        "baseColorTexture": {
          "index": 0
        },
        "metallicFactor": 0.05,
        "metallicRoughnessTexture": {
          "index": 1
        },
        "roughnessFactor": 0.9872178155266942
      }
    },
    {
      "doubleSided": true,
      "name": "Base1Mtl",
      "pbrMetallicRoughness": {
        "baseColorFactor": [
          0.00258583,
          0.00258583,
          0.00258583,
          1.0
        ],
        "metallicFactor": 0.05
      }
    },
    {
      "alphaMode": "BLEND",
      "doubleSided": true,
      "emissiveTexture": {
        "index": 5
      },
      "name": "Caliperrr0011Mtl",
      "pbrMetallicRoughness": {
        "baseColorTexture": {
          "index": 3
        },
        "metallicFactor": 0.05,
        "metallicRoughnessTexture": {
          "index": 4
        },
        "roughnessFactor": 0.9872178155266942
      }
    },
    {
      "doubleSided": true,
      "name": "Caliperrr0021Mtl",
      "pbrMetallicRoughness": {
        "baseColorFactor": [
          1.0,
          0.0,
          0.0,
          1.0
        ],
        "metallicFactor": 0.05,
        "metallicRoughnessTexture": {
          "index": 4
        },
        "roughnessFactor": 0.0
      }
    },
    {
      "alphaMode": "BLEND",
      "doubleSided": true,
      "emissiveTexture": {
        "index": 8
      },
      "name": "Caliperrr1Mtl",
      "pbrMetallicRoughness": {
        "baseColorTexture": {
          "index": 6
        },
        "metallicFactor": 0.05,
        "metallicRoughnessTexture": {
          "index": 7
        },
        "roughnessFactor": 0.9872178155266942
      }
    },
    {
      "doubleSided": true,
      "emissiveTexture": {
        "index": 9
      },
      "name": "Carbon1details1Mtl",
      "pbrMetallicRoughness": {
        "baseColorTexture": {
          "index": 9
        },
        "metallicFactor": 0.05,
        "metallicRoughnessTexture": {
          "index": 10
        },
        "roughnessFactor": 0.0
      }
    },
    {
      "doubleSided": true,
      "name": "Coloured0011Mtl",
      "pbrMetallicRoughness": {
        "roughnessFactor": 0.0
      }
    },
    {
      "doubleSided": true,
      "emissiveTexture": {
        "index": 11
      },
      "name": "Coloured0051Mtl",
      "pbrMetallicRoughness": {
        "baseColorTexture": {
          "index": 11
        },
        "metallicFactor": 0.05,
        "metallicRoughnessTexture": {
          "index": 12
        },
        "roughnessFactor": 0.0
      }
    },
    {
      "doubleSided": true,
      "emissiveTexture": {
        "index": 13
      },
      "name": "Doorrfgrille71Mtl",
      "normalTexture": {
        "index": 15
      },
      "pbrMetallicRoughness": {
        "baseColorTexture": {
          "index": 13
        },
        "metallicFactor": 0.05,
        "metallicRoughnessTexture": {
          "index": 14
        },
        "roughnessFactor": 0.324952380952381
      }
    },
    {
      "alphaMode": "BLEND",
      "doubleSided": true,
      "emissiveTexture": {
        "index": 17
      },
      "name": "Glass0011Mtl",
      "pbrMetallicRoughness": {
        "baseColorFactor": [
          1.0,
          0.0,
          0.0,
          0.4
        ],
        "metallicFactor": 0.05,
        "metallicRoughnessTexture": {
          "index": 16
        },
        "roughnessFactor": 0.0
      }
    },
    {
      "alphaMode": "BLEND",
      "doubleSided": true,
      "name": "Glass1Mtl",
      "pbrMetallicRoughness": {
        "baseColorFactor": [
          0.00258583,
          0.00258583,
          0.00258583,
          0.2
        ],
        "metallicFactor": 0.05,
        "roughnessFactor": 0.0
      }
    },
    {
      "alphaMode": "BLEND",
      "doubleSided": true,
      "name": "Glassinside0011Mtl",
      "pbrMetallicRoughness": {
        "baseColorFactor": [
          0.5540790912347202,
          1.0,
          0.8287710379228271,
          0.301961
        ],
        "roughnessFactor": 0.0
      }
    },
    {
      "doubleSided": true,
      "emissiveTexture": {
        "index": 18
      },
      "name": "Grille11Mtl",
      "normalTexture": {
        "index": 20
      },
      "pbrMetallicRoughness": {
        "baseColorTexture": {
          "index": 18
        },
        "metallicFactor": 0.05,
        "metallicRoughnessTexture": {
          "index": 19
        },
        "roughnessFactor": 0.9872178155266942
      }
    },
    {
      "alphaMode": "BLEND",
      "doubleSided": true,
      "emissiveTexture": {
        "index": 23
      },
      "name": "Grille21Mtl",
      "normalTexture": {
        "index": 24
      },
      "pbrMetallicRoughness": {
        "baseColorTexture": {
          "index": 21
        },
        "metallicFactor": 0.05,
        "metallicRoughnessTexture": {
          "index": 22
        },
        "roughnessFactor": 0.9872178155266942
      }
    },
    {
      "doubleSided": true,
      "emissiveTexture": {
        "index": 25
      },
      "name": "Grille31Mtl",
      "normalTexture": {
        "index": 27
      },
      "pbrMetallicRoughness": {
        "baseColorTexture": {
          "index": 25
        },
        "metallicFactor": 0.05,
        "metallicRoughnessTexture": {
          "index": 26
        },
        "roughnessFactor": 0.9872178155266942
      }
    },
    {
      "doubleSided": true,
      "emissiveTexture": {
        "index": 28
      },
      "name": "Grille41Mtl",
      "normalTexture": {
        "index": 30
      },
      "pbrMetallicRoughness": {
        "baseColorTexture": {
          "index": 28
        },
        "metallicFactor": 0.05,
        "metallicRoughnessTexture": {
          "index": 29
        },
        "roughnessFactor": 0.9872178155266942
      }
    },
    {
      "alphaMode": "BLEND",
      "doubleSided": true,
      "emissiveTexture": {
        "index": 33
      },
      "name": "Grille51Mtl",
      "normalTexture": {
        "index": 34
      },
      "pbrMetallicRoughness": {
        "baseColorTexture": {
          "index": 31
        },
        "metallicFactor": 0.05,
        "metallicRoughnessTexture": {
          "index": 32
        },
        "roughnessFactor": 0.9872178155266942
      }
    },
    {
      "alphaMode": "BLEND",
      "doubleSided": true,
      "emissiveTexture": {
        "index": 37
      },
      "name": "Grille61Mtl",
      "normalTexture": {
        "index": 38
      },
      "pbrMetallicRoughness": {
        "baseColorTexture": {
          "index": 35
        },
        "metallicFactor": 0.05,
        "metallicRoughnessTexture": {
          "index": 36
        },
        "roughnessFactor": 0.9872178155266942
      }
    },
    {
      "alphaMode": "BLEND",
      "doubleSided": true,
      "emissiveTexture": {
        "index": 41
      },
      "name": "Grille81Mtl",
      "normalTexture": {
        "index": 42
      },
      "pbrMetallicRoughness": {
        "baseColorTexture": {
          "index": 39
        },
        "metallicFactor": 0.05,
        "metallicRoughnessTexture": {
          "index": 40
        },
        "roughnessFactor": 0.9872178155266942
      }
    },
    {
      "doubleSided": true,
      "emissiveTexture": {
        "index": 43
      },
      "name": "Interioremissive1Mtl",
      "normalTexture": {
        "index": 45
      },
      "pbrMetallicRoughness": {
        "baseColorTexture": {
          "index": 43
        },
        "metallicFactor": 0.05,
        "metallicRoughnessTexture": {
          "index": 44
        },
        "roughnessFactor": 0.3005714285714286
      }
    },
    {
      "doubleSided": true,
      "emissiveTexture": {
        "index": 46
      },
      "name": "Interiortilling1Mtl",
      "normalTexture": {
        "index": 48
      },
      "pbrMetallicRoughness": {
        "baseColorTexture": {
          "index": 46
        },
        "metallicFactor": 0.05,
        "metallicRoughnessTexture": {
          "index": 47
        },
        "roughnessFactor": 0.24571428571428566
      }
    },
    {
      "doubleSided": true,
      "name": "Interiorzone21Mtl",
      "normalTexture": {
        "index": 45
      },
      "pbrMetallicRoughness": {
        "baseColorFactor": [
          0.687031,
          0.124741,
          0.124741,
          1.0
        ],
        "metallicFactor": 0.05,
        "metallicRoughnessTexture": {
          "index": 44
        },
        "roughnessFactor": 0.9915780437531697
      }
    },
    {
      "doubleSided": true,
      "emissiveTexture": {
        "index": 49
      },
      "name": "Light0061Mtl",
      "pbrMetallicRoughness": {
        "baseColorTexture": {
          "index": 49
        },
        "metallicFactor": 0.05,
        "metallicRoughnessTexture": {
          "index": 50
        },
        "roughnessFactor": 0.9872178155266942
      }
    },
    {
      "doubleSided": true,
      "name": "Manufacturerplate1Mtl",
      "pbrMetallicRoughness": {
        "baseColorFactor": [
          0.0,
          0.0,
          0.0,
          1.0
        ],
        "metallicFactor": 0.05
      }
    },
    {
      "doubleSided": true,
      "name": "Paint1Mtl",
      "pbrMetallicRoughness": {
        "baseColorFactor": [
          0.673049,
          0.673049,
          0.673049,
          1.0
        ],
        "metallicFactor": 0.05,
        "roughnessFactor": 0.0
      }
    },
    {
      "alphaMode": "BLEND",
      "doubleSided": true,
      "emissiveTexture": {
        "index": 53
      },
      "name": "Speculartint1Mtl",
      "normalTexture": {
        "index": 54
      },
      "pbrMetallicRoughness": {
        "baseColorTexture": {
          "index": 51
        },
        "metallicFactor": 0.05,
        "metallicRoughnessTexture": {
          "index": 52
        },
        "roughnessFactor": 0.9872178155266942
      }
    },
    {
      "doubleSided": true,
      "emissiveTexture": {
        "index": 55
      },
      "name": "Textured24811Mtl",
      "pbrMetallicRoughness": {
        "baseColorTexture": {
          "index": 55
        },
        "metallicFactor": 0.05,
        "metallicRoughnessTexture": {
          "index": 56
        },
        "roughnessFactor": 0.34323809523809523
      }
    },
    {
      "alphaMode": "BLEND",
      "doubleSided": true,
      "emissiveTexture": {
        "index": 11
      },
      "name": "Trunkhinge2coloured1Mtl",
      "pbrMetallicRoughness": {
        "baseColorFactor": [
          1.0,
          1.0,
          1.0,
          0.054902
        ],
        "baseColorTexture": {
          "index": 57
        },
        "metallicFactor": 0.05,
        "metallicRoughnessTexture": {
          "index": 12
        },
        "roughnessFactor": 0.9995899825194867
      }
    },
    {
      "alphaMode": "BLEND",
      "doubleSided": true,
      "emissiveTexture": {
        "index": 60
      },
      "name": "Wheel01lr0011Mtl",
      "normalTexture": {
        "index": 61
      },
      "pbrMetallicRoughness": {
        "baseColorTexture": {
          "index": 58
        },
        "metallicFactor": 0.05,
        "metallicRoughnessTexture": {
          "index": 59
        },
        "roughnessFactor": 0.39809523809523806
      }
    }
  ],
  "meshes": [
    {
      "name": "Object_0",
      "primitives": [
        {
          "attributes": {
            "NORMAL": 1,
            "POSITION": 0,
            "TEXCOORD_0": 2
          },
          "indices": 3,
          "material": 9,
          "mode": 4
        }
      ]
    },
    {
      "name": "Object_1",
      "primitives": [
        {
          "attributes": {
            "NORMAL": 5,
            "POSITION": 4,
            "TANGENT": 6,
            "TEXCOORD_0": 7
          },
          "indices": 8,
          "material": 12,
          "mode": 4
        }
      ]
    },
    {
      "name": "Object_2",
      "primitives": [
        {
          "attributes": {
            "NORMAL": 10,
            "POSITION": 9,
            "TANGENT": 11,
            "TEXCOORD_0": 12
          },
          "indices": 13,
          "material": 13,
          "mode": 4
        }
      ]
    },
    {
      "name": "Object_3",
      "primitives": [
        {
          "attributes": {
            "NORMAL": 15,
            "POSITION": 14,
            "TANGENT": 16,
            "TEXCOORD_0": 17
          },
          "indices": 18,
          "material": 14,
          "mode": 4
        }
      ]
    },
    {
      "name": "Object_4",
      "primitives": [
        {
          "attributes": {
            "NORMAL": 20,
            "POSITION": 19,
            "TANGENT": 21,
            "TEXCOORD_0": 22
          },
          "indices": 23,
          "material": 15,
          "mode": 4
        }
      ]
    },
    {
      "name": "Object_5",
      "primitives": [
        {
          "attributes": {
            "NORMAL": 25,
            "POSITION": 24,
            "TANGENT": 26,
            "TEXCOORD_0": 27
          },
          "indices": 28,
          "material": 16,
          "mode": 4
        }
      ]
    },
    {
      "name": "Object_6",
      "primitives": [
        {
          "attributes": {
            "NORMAL": 30,
            "POSITION": 29,
            "TANGENT": 31,
            "TEXCOORD_0": 32
          },
          "indices": 33,
          "material": 17,
          "mode": 4
        }
      ]
    },
    {
      "name": "Object_7",
      "primitives": [
        {
          "attributes": {
            "NORMAL": 35,
            "POSITION": 34,
            "TANGENT": 36,
            "TEXCOORD_0": 37
          },
          "indices": 38,
          "material": 18,
          "mode": 4
        }
      ]
    },
    {
      "name": "Object_8",
      "primitives": [
        {
          "attributes": {
            "NORMAL": 40,
            "POSITION": 39,
            "TEXCOORD_0": 41
          },
          "indices": 42,
          "material": 23,
          "mode": 4
        }
      ]
    },
    {
      "name": "Object_9",
      "primitives": [
        {
          "attributes": {
            "NORMAL": 44,
            "POSITION": 43,
            "TANGENT": 45,
            "TEXCOORD_0": 46
          },
          "indices": 47,
          "material": 25,
          "mode": 4
        }
      ]
    },
    {
      "name": "Object_10",
      "primitives": [
        {
          "attributes": {
            "NORMAL": 49,
            "POSITION": 48,
            "TEXCOORD_0": 50
          },
          "indices": 51,
          "material": 27,
          "mode": 4
        }
      ]
    },
    {
      "name": "Object_11",
      "primitives": [
        {
          "attributes": {
            "NORMAL": 53,
            "POSITION": 52,
            "TANGENT": 54,
            "TEXCOORD_0": 55
          },
          "indices": 56,
          "material": 0,
          "mode": 4
        }
      ]
    },
    {
      "name": "Object_12",
      "primitives": [
        {
          "attributes": {
            "NORMAL": 58,
            "POSITION": 57,
            "TEXCOORD_0": 59
          },
          "indices": 60,
          "material": 5,
          "mode": 4
        }
      ]
    },
    {
      "name": "Object_13",
      "primitives": [
        {
          "attributes": {
            "NORMAL": 62,
            "POSITION": 61,
            "TEXCOORD_0": 63
          },
          "indices": 64,
          "material": 5,
          "mode": 4
        }
      ]
    },
    {
      "name": "Object_14",
      "primitives": [
        {
          "attributes": {
            "NORMAL": 66,
            "POSITION": 65,
            "TEXCOORD_0": 67
          },
          "indices": 68,
          "material": 1,
          "mode": 4
        }
      ]
    },
    {
      "name": "Object_15",
      "primitives": [
        {
          "attributes": {
            "NORMAL": 70,
            "POSITION": 69,
            "TEXCOORD_0": 71
          },
          "indices": 72,
          "material": 2,
          "mode": 4
        }
      ]
    },
    {
      "name": "Object_16",
      "primitives": [
        {
          "attributes": {
            "NORMAL": 74,
            "POSITION": 73,
            "TEXCOORD_0": 75
          },
          "indices": 76,
          "material": 3,
          "mode": 4
        }
      ]
    },
    {
      "name": "Object_17",
      "primitives": [
        {
          "attributes": {
            "NORMAL": 78,
            "POSITION": 77,
            "TEXCOORD_0": 79
          },
          "indices": 80,
          "material": 4,
          "mode": 4
        }
      ]
    },
    {
      "name": "Object_18",
      "primitives": [
        {
          "attributes": {
            "NORMAL": 82,
            "POSITION": 81,
            "TEXCOORD_0": 83
          },
          "indices": 84,
          "material": 6,
          "mode": 4
        }
      ]
    },
    {
      "name": "Object_19",
      "primitives": [
        {
          "attributes": {
            "NORMAL": 86,
            "POSITION": 85,
            "TEXCOORD_0": 87
          },
          "indices": 88,
          "material": 7,
          "mode": 4
        }
      ]
    },
    {
      "name": "Object_20",
      "primitives": [
        {
          "attributes": {
            "NORMAL": 90,
            "POSITION": 89,
            "TEXCOORD_0": 91
          },
          "indices": 92,
          "material": 7,
          "mode": 4
        }
      ]
    },
    {
      "name": "Object_21",
      "primitives": [
        {
          "attributes": {
            "NORMAL": 94,
            "POSITION": 93,
            "TEXCOORD_0": 95
          },
          "indices": 96,
          "material": 7,
          "mode": 4
        }
      ]
    },
    {
      "name": "Object_22",
      "primitives": [
        {
          "attributes": {
            "NORMAL": 98,
            "POSITION": 97,
            "TEXCOORD_0": 99
          },
          "indices": 100,
          "material": 7,
          "mode": 4
        }
      ]
    },
    {
      "name": "Object_23",
      "primitives": [
        {
          "attributes": {
            "NORMAL": 102,
            "POSITION": 101,
            "TEXCOORD_0": 103
          },
          "indices": 104,
          "material": 7,
          "mode": 4
        }
      ]
    },
    {
      "name": "Object_24",
      "primitives": [
        {
          "attributes": {
            "NORMAL": 106,
            "POSITION": 105,
            "TANGENT": 107,
            "TEXCOORD_0": 108
          },
          "indices": 109,
          "material": 8,
          "mode": 4
        }
      ]
    },
    {
      "name": "Object_25",
      "primitives": [
        {
          "attributes": {
            "NORMAL": 111,
            "POSITION": 110,
            "TEXCOORD_0": 112
          },
          "indices": 113,
          "material": 10,
          "mode": 4
        }
      ]
    },
    {
      "name": "Object_26",
      "primitives": [
        {
          "attributes": {
            "NORMAL": 115,
            "POSITION": 114,
            "TEXCOORD_0": 116
          },
          "indices": 117,
          "material": 11,
          "mode": 4
        }
      ]
    },
    {
      "name": "Object_27",
      "primitives": [
        {
          "attributes": {
            "NORMAL": 119,
            "POSITION": 118,
            "TANGENT": 120,
            "TEXCOORD_0": 121
          },
          "indices": 122,
          "material": 19,
          "mode": 4
        }
      ]
    },
    {
      "name": "Object_28",
      "primitives": [
        {
          "attributes": {
            "NORMAL": 124,
            "POSITION": 123,
            "TANGENT": 125,
            "TEXCOORD_0": 126
          },
          "indices": 127,
          "material": 19,
          "mode": 4
        }
      ]
    },
    {
      "name": "Object_29",
      "primitives": [
        {
          "attributes": {
            "NORMAL": 129,
            "POSITION": 128,
            "TANGENT": 130,
            "TEXCOORD_0": 131
          },
          "indices": 132,
          "material": 19,
          "mode": 4
        }
      ]
    },
    {
      "name": "Object_30",
      "primitives": [
        {
          "attributes": {
            "NORMAL": 134,
            "POSITION": 133,
            "TANGENT": 135,
            "TEXCOORD_0": 136
          },
          "indices": 137,
          "material": 19,
          "mode": 4
        }
      ]
    },
    {
      "name": "Object_31",
      "primitives": [
        {
          "attributes": {
            "NORMAL": 139,
            "POSITION": 138,
            "TANGENT": 140,
            "TEXCOORD_0": 141
          },
          "indices": 142,
          "material": 19,
          "mode": 4
        }
      ]
    },
    {
      "name": "Object_32",
      "primitives": [
        {
          "attributes": {
            "NORMAL": 144,
            "POSITION": 143,
            "TANGENT": 145,
            "TEXCOORD_0": 146
          },
          "indices": 147,
          "material": 20,
          "mode": 4
        }
      ]
    },
    {
      "name": "Object_33",
      "primitives": [
        {
          "attributes": {
            "NORMAL": 149,
            "POSITION": 148,
            "TEXCOORD_0": 150
          },
          "indices": 151,
          "material": 22,
          "mode": 4
        }
      ]
    },
    {
      "name": "Object_34",
      "primitives": [
        {
          "attributes": {
            "NORMAL": 153,
            "POSITION": 152,
            "TEXCOORD_0": 154
          },
          "indices": 155,
          "material": 22,
          "mode": 4
        }
      ]
    },
    {
      "name": "Object_35",
      "primitives": [
        {
          "attributes": {
            "NORMAL": 157,
            "POSITION": 156,
            "TEXCOORD_0": 158
          },
          "indices": 159,
          "material": 22,
          "mode": 4
        }
      ]
    },
    {
      "name": "Object_36",
      "primitives": [
        {
          "attributes": {
            "NORMAL": 161,
            "POSITION": 160,
            "TANGENT": 162,
            "TEXCOORD_0": 163
          },
          "indices": 164,
          "material": 21,
          "mode": 4
        }
      ]
    },
    {
      "name": "Object_37",
      "primitives": [
        {
          "attributes": {
            "NORMAL": 166,
            "POSITION": 165,
            "TANGENT": 167,
            "TEXCOORD_0": 168
          },
          "indices": 169,
          "material": 28,
          "mode": 4
        }
      ]
    },
    {
      "name": "Object_38",
      "primitives": [
        {
          "attributes": {
            "NORMAL": 171,
            "POSITION": 170,
            "TANGENT": 172,
            "TEXCOORD_0": 173
          },
          "indices": 174,
          "material": 28,
          "mode": 4
        }
      ]
    },
    {
      "name": "Object_39",
      "primitives": [
        {
          "attributes": {
            "NORMAL": 176,
            "POSITION": 175,
            "TANGENT": 177,
            "TEXCOORD_0": 178
          },
          "indices": 179,
          "material": 28,
          "mode": 4
        }
      ]
    },
    {
      "name": "Object_40",
      "primitives": [
        {
          "attributes": {
            "NORMAL": 181,
            "POSITION": 180,
            "TANGENT": 182,
            "TEXCOORD_0": 183
          },
          "indices": 184,
          "material": 28,
          "mode": 4
        }
      ]
    },
    {
      "name": "Object_41",
      "primitives": [
        {
          "attributes": {
            "NORMAL": 186,
            "POSITION": 185,
            "TANGENT": 187,
            "TEXCOORD_0": 188
          },
          "indices": 189,
          "material": 28,
          "mode": 4
        }
      ]
    },
    {
      "name": "Object_42",
      "primitives": [
        {
          "attributes": {
            "NORMAL": 191,
            "POSITION": 190,
            "TEXCOORD_0": 192
          },
          "indices": 193,
          "material": 24,
          "mode": 4
        }
      ]
    },
    {
      "name": "Object_43",
      "primitives": [
        {
          "attributes": {
            "NORMAL": 195,
            "POSITION": 194,
            "TEXCOORD_0": 196
          },
          "indices": 197,
          "material": 24,
          "mode": 4
        }
      ]
    },
    {
      "name": "Object_44",
      "primitives": [
        {
          "attributes": {
            "NORMAL": 199,
            "POSITION": 198,
            "TEXCOORD_0": 200
          },
          "indices": 201,
          "material": 24,
          "mode": 4
        }
      ]
    },
    {
      "name": "Object_45",
      "primitives": [
        {
          "attributes": {
            "NORMAL": 203,
            "POSITION": 202,
            "TEXCOORD_0": 204
          },
          "indices": 205,
          "material": 26,
          "mode": 4
        }
      ]
    },
    {
      "name": "Object_46",
      "primitives": [
        {
          "attributes": {
            "NORMAL": 207,
            "POSITION": 206,
            "TEXCOORD_0": 208
          },
          "indices": 209,
          "material": 26,
          "mode": 4
        }
      ]
    }
  ],
  "nodes": [
    {
      "children": [
        1
      ],
      "matrix": [
        1.0,
        0.0,
        0.0,
        0.0,
        0.0,
        2.220446049250313e-16,
        -1.0,
        0.0,
        0.0,
        1.0,
        2.220446049250313e-16,
        0.0,
        0.0,
        0.0,
        0.0,
        1.0
      ],
      "name": "Sketchfab_model"
    },
    {
      "children": [
        2,
        3,
        4,
        5,
        6,
        7,
        8,
        9,
        10,
        11,
        12,
        13,
        14,
        15,
        16,
        17,
        18,
        19,
        20,
        21,
        22,
        23,
        24,
        25,
        26,
        27,
        28,
        29,
        30,
        31,
        32,
        33,
        34,
        35,
        36,
        37,
        38,
        39,
        40,
        41,
        42,
        43,
        44,
        45,
        46,
        47,
        48
      ],
      "name": "2023 Audi R8 GT Final Edition.obj.cleaner.materialmerger.gles"
    },
    {
      "mesh": 0,
      "name": "Object_2"
    },
    {
      "mesh": 1,
      "name": "Object_3"
    },
    {
      "mesh": 2,
      "name": "Object_4"
    },
    {
      "mesh": 3,
      "name": "Object_5"
    },
    {
      "mesh": 4,
      "name": "Object_6"
    },
    {
      "mesh": 5,
      "name": "Object_7"
    },
    {
      "mesh": 6,
      "name": "Object_8"
    },
    {
      "mesh": 7,
      "name": "Object_9"
    },
    {
      "mesh": 8,
      "name": "Object_10"
    },
    {
      "mesh": 9,
      "name": "Object_11"
    },
    {
      "mesh": 10,
      "name": "Object_12"
    },
    {
      "mesh": 11,
      "name": "Object_13"
    },
    {
      "mesh": 12,
      "name": "Object_14"
    },
    {
      "mesh": 13,
      "name": "Object_15"
    },
    {
      "mesh": 14,
      "name": "Object_16"
    },
    {
      "mesh": 15,
      "name": "Object_17"
    },
    {
      "mesh": 16,
      "name": "Object_18"
    },
    {
      "mesh": 17,
      "name": "Object_19"
    },
    {
      "mesh": 18,
      "name": "Object_20"
    },
    {
      "mesh": 19,
      "name": "Object_21"
    },
    {
      "mesh": 20,
      "name": "Object_22"
    },
    {
      "mesh": 21,
      "name": "Object_23"
    },
    {
      "mesh": 22,
      "name": "Object_24"
    },
    {
      "mesh": 23,
      "name": "Object_25"
    },
    {
      "mesh": 24,
      "name": "Object_26"
    },
    {
      "mesh": 25,
      "name": "Object_27"
    },
    {
      "mesh": 26,
      "name": "Object_28"
    },
    {
      "mesh": 27,
      "name": "Object_29"
    },
    {
      "mesh": 28,
      "name": "Object_30"
    },
    {
      "mesh": 29,
      "name": "Object_31"
    },
    {
      "mesh": 30,
      "name": "Object_32"
    },
    {
      "mesh": 31,
      "name": "Object_33"
    },
    {
      "mesh": 32,
      "name": "Object_34"
    },
    {
      "mesh": 33,
      "name": "Object_35"
    },
    {
      "mesh": 34,
      "name": "Object_36"
    },
    {
      "mesh": 35,
      "name": "Object_37"
    },
    {
      "mesh": 36,
      "name": "Object_38"
    },
    {
      "mesh": 37,
      "name": "Object_39"
    },
    {
      "mesh": 38,
      "name": "Object_40"
    },
    {
      "mesh": 39,
      "name": "Object_41"
    },
    {
      "mesh": 40,
      "name": "Object_42"
    },
    {
      "mesh": 41,
      "name": "Object_43"
    },
    {
      "mesh": 42,
      "name": "Object_44"
    },
    {
      "mesh": 43,
      "name": "Object_45"
    },
    {
      "mesh": 44,
      "name": "Object_46"
    },
    {
      "mesh": 45,
      "name": "Object_47"
    },
    {
      "mesh": 46,
      "name": "Object_48"
    }
  ],
  "samplers": [
    {
      "magFilter": 9729,
      "minFilter": 9987,
      "wrapS": 10497,
      "wrapT": 10497
    }
  ],
  "scene": 0,
  "scenes": [
    {
      "name": "Sketchfab_Scene",
      "nodes": [
        0
      ]
    }
  ],
  "textures": [
    {
      "sampler": 0,
      "source": 0
    },
    {
      "sampler": 0,
      "source": 1
    },
    {
      "sampler": 0,
      "source": 2
    },
    {
      "sampler": 0,
      "source": 3
    },
    {
      "sampler": 0,
      "source": 4
    },
    {
      "sampler": 0,
      "source": 5
    },
    {
      "sampler": 0,
      "source": 6
    },
    {
      "sampler": 0,
      "source": 7
    },
    {
      "sampler": 0,
      "source": 8
    },
    {
      "sampler": 0,
      "source": 9
    },
    {
      "sampler": 0,
      "source": 10
    },
    {
      "sampler": 0,
      "source": 11
    },
    {
      "sampler": 0,
      "source": 12
    },
    {
      "sampler": 0,
      "source": 13
    },
    {
      "sampler": 0,
      "source": 14
    },
    {
      "sampler": 0,
      "source": 15
    },
    {
      "sampler": 0,
      "source": 16
    },
    {
      "sampler": 0,
      "source": 17
    },
    {
      "sampler": 0,
      "source": 18
    },
    {
      "sampler": 0,
      "source": 19
    },
    {
      "sampler": 0,
      "source": 20
    },
    {
      "sampler": 0,
      "source": 21
    },
    {
      "sampler": 0,
      "source": 22
    },
    {
      "sampler": 0,
      "source": 23
    },
    {
      "sampler": 0,
      "source": 24
    },
    {
      "sampler": 0,
      "source": 25
    },
    {
      "sampler": 0,
      "source": 26
    },
    {
      "sampler": 0,
      "source": 27
    },
    {
      "sampler": 0,
      "source": 28
    },
    {
      "sampler": 0,
      "source": 29
    },
    {
      "sampler": 0,
      "source": 30
    },
    {
      "sampler": 0,
      "source": 31
    },
    {
      "sampler": 0,
      "source": 32
    },
    {
      "sampler": 0,
      "source": 33
    },
    {
      "sampler": 0,
      "source": 34
    },
    {
      "sampler": 0,
      "source": 35
    },
    {
      "sampler": 0,
      "source": 36
    },
    {
      "sampler": 0,
      "source": 37
    },
    {
      "sampler": 0,
      "source": 38
    },
    {
      "sampler": 0,
      "source": 39
    },
    {
      "sampler": 0,
      "source": 40
    },
    {
      "sampler": 0,
      "source": 41
    },
    {
      "sampler": 0,
      "source": 42
    },
    {
      "sampler": 0,
      "source": 43
    },
    {
      "sampler": 0,
      "source": 44
    },
    {
      "sampler": 0,
      "source": 45
    },
    {
      "sampler": 0,
      "source": 46
    },
    {
      "sampler": 0,
      "source": 47
    },
    {
      "sampler": 0,
      "source": 48
    },
    {
      "sampler": 0,
      "source": 49
    },
    {
      "sampler": 0,
      "source": 50
    },
    {
      "sampler": 0,
      "source": 51
    },
    {
      "sampler": 0,
      "source": 52
    },
    {
      "sampler": 0,
      "source": 53
    },
    {
      "sampler": 0,
      "source": 54
    },
    {
      "sampler": 0,
      "source": 55
    },
    {
      "sampler": 0,
      "source": 56
    },
    {
      "sampler": 0,
      "source": 57
    },
    {
      "sampler": 0,
      "source": 58
    },
    {
      "sampler": 0,
      "source": 59
    },
    {
      "sampler": 0,
      "source": 60
    },
    {
      "sampler": 0,
      "source": 61
    }
  ]
}
